# xmcd CD database file
#
# Track frame offsets:
#	150
#	17179
#	30393
#	44843
#	59495
#	81360
#	93887
#	109734
#	139255
#	163542
#	178143
#	192499
#	206386
#	219961
#	233837
#	244824
#	262823
#
# Disc length: 3705 seconds
#
# Revision: 2
# Processed by: cddbd v1.4PL0 Copyright (c) Steve Scherf et al.
# Submitted via: CDex 1.50Beta7
#
DISCID=ed0e7711
DTITLE=Various Artist - Cuba and Salsa Echale Salsita Amor CD1
DYEAR=2001
DGENRE=Merengue
TTITLE0=Echale Salsita - Celeste Mendoza
TTITLE1=Pare Cachero - Orquesta Aragon
TTITLE2=Guajira Guanta Namera - Abelardo Barroso
TTITLE3=Que Se Funan - Merceditas Valdes Y Orquesta
TTITLE4=El Coco - Irakere
TTITLE5=El Bobo De La Yuca - Benny More
TTITLE6=Santa Barbara - Celina Gonzalez
TTITLE7=La Protesta De Los Chivos - N La Banda
TTITLE8=Eso Qie Amda - Los Van Van
TTITLE9=Amor Fugaz - Benny More
TTITLE10=Te Quedaras - Benny More Y Su Orquesta
TTITLE11=Me Faltabas Tu - Pacho Alonso Y Su Orquesta
TTITLE12=Como Arullo De Palmas - Benny More
TTITLE13=Caserita Villarena . Qrquesta Aragon
TTITLE14=El Panquelero - Paulina Alvarez
TTITLE15=Yo Soy El Punto Cubano - Celina Gonzalez
TTITLE16=Bonustrack CD1
EXTD=YEAR: 2001
EXTT0=
EXTT1=
EXTT2=
EXTT3=
EXTT4=
EXTT5=
EXTT6=
EXTT7=
EXTT8=
EXTT9=
EXTT10=
EXTT11=
EXTT12=
EXTT13=
EXTT14=
EXTT15=
EXTT16=
PLAYORDER=
